# xmcd CD database file
#
# Track frame offsets:
#	183
#	20703
#	42363
#	59163
#	72680
#	88448
#	100810
#	113908
#	125888
#	142445
#	157175
#	171495
#	188395
#	198223
#	210675
#
# Disc length: 3046 seconds
#
# Revision: 2
# Processed by: cddbd v1.5.2PL0 Copyright (c) Steve Scherf et al.
# Submitted via: CDex 1.70beta2
#
DISCID=f90be40f
DTITLE=Giroux - Mahjun - Rencontre du deuxième type
DYEAR=1991
DGENRE=Blues
TTITLE0=Saint James Infirmary
TTITLE1=Shake It Baby
TTITLE2=Old Pants Blues
TTITLE3=Lover's Boogie
TTITLE4=Angie
TTITLE5=Shake Your Moneymaker
TTITLE6=Mississipi In Blue
TTITLE7=Travelling Man
TTITLE8=Metting In Swing
TTITLE9=Don't Mind The Way She Loves Me
TTITLE10=Unkind Girl Blues
TTITLE11=Georgia Bound
TTITLE12=Candle Boogie
TTITLE13=Piccolo Rag
TTITLE14=Drifting Blues
EXTD=YEAR: 1991
EXTT0=
EXTT1=
EXTT2=
EXTT3=
EXTT4=
EXTT5=
EXTT6=
EXTT7=
EXTT8=
EXTT9=
EXTT10=
EXTT11=
EXTT12=
EXTT13=
EXTT14=
PLAYORDER=
